HIERARCHY
ROOT root
{
	OFFSET 0.000000 0.000000 0.000000
	CHANNELS 6 Xposition Yposition Zposition Zrotation Yrotation Xrotation
	JOINT lhip
	{
		OFFSET 0.058581 -0.082280 -0.017664
		CHANNELS 3 Zrotation Yrotation Xrotation
		JOINT lknee
		{
			OFFSET 0.043451 -0.386469 0.008037
			CHANNELS 3 Zrotation Yrotation Xrotation
			JOINT lankle
			{
				OFFSET -0.014790 -0.426874 -0.037428
				CHANNELS 3 Zrotation Yrotation Xrotation
				JOINT ltoe
				{
					OFFSET 0.041054 -0.060286 0.122042
					CHANNELS 3 Zrotation Yrotation Xrotation
					End Site
					{
						OFFSET 0.000000 0.000000 0.000000
					}
				}
			}
		}
	}
	JOINT rhip
	{
		OFFSET -0.060310 -0.090513 -0.013543
		CHANNELS 3 Zrotation Yrotation Xrotation
		JOINT rknee
		{
			OFFSET -0.043257 -0.383688 -0.004843
			CHANNELS 3 Zrotation Yrotation Xrotation
			JOINT rankle
			{
				OFFSET 0.019056 -0.420046 -0.034562
				CHANNELS 3 Zrotation Yrotation Xrotation
				JOINT rtoe
				{
					OFFSET -0.034840 -0.062106 0.130323
					CHANNELS 3 Zrotation Yrotation Xrotation
					End Site
					{
						OFFSET 0.000000 0.000000 0.000000
					}
				}
			}
		}
	}
	JOINT lowerback
	{
		OFFSET 0.004439 0.124404 -0.038385
		CHANNELS 3 Zrotation Yrotation Xrotation
		JOINT upperback
		{
			OFFSET 0.004488 0.137956 0.026820
			CHANNELS 3 Zrotation Yrotation Xrotation
			JOINT chest
			{
				OFFSET -0.002265 0.056032 0.002855
				CHANNELS 3 Zrotation Yrotation Xrotation
				JOINT lowerneck
				{
					OFFSET -0.013390 0.211636 -0.033468
					CHANNELS 3 Zrotation Yrotation Xrotation
					JOINT upperneck
					{
						OFFSET 0.010113 0.088937 0.050410
						CHANNELS 3 Zrotation Yrotation Xrotation
						End Site
						{
							OFFSET 0.000000 0.000000 0.000000
						}
					}
				}
				JOINT lclavicle
				{
					OFFSET 0.071702 0.114000 -0.018898
					CHANNELS 3 Zrotation Yrotation Xrotation
					JOINT lshoulder
					{
						OFFSET 0.122921 0.045205 -0.019046
						CHANNELS 3 Zrotation Yrotation Xrotation
						JOINT lelbow
						{
							OFFSET 0.255332 -0.015649 -0.022946
							CHANNELS 3 Zrotation Yrotation Xrotation
							JOINT lwrist
							{
								OFFSET 0.265709 0.012698 -0.007375
								CHANNELS 3 Zrotation Yrotation Xrotation
								End Site
								{
									OFFSET 0.000000 0.000000 0.000000
								}
							}
						}
					}
				}
				JOINT rclavicle
				{
					OFFSET -0.082954 0.112472 -0.023707
					CHANNELS 3 Zrotation Yrotation Xrotation
					JOINT rshoulder
					{
						OFFSET -0.113228 0.046853 -0.008472
						CHANNELS 3 Zrotation Yrotation Xrotation
						JOINT relbow
						{
							OFFSET -0.260127 -0.014369 -0.031269
							CHANNELS 3 Zrotation Yrotation Xrotation
							JOINT rwrist
							{
								OFFSET -0.269108 0.006794 -0.006027
								CHANNELS 3 Zrotation Yrotation Xrotation
								End Site
								{
									OFFSET 0.000000 0.000000 0.000000
								}
							}
						}
					}
				}
			}
		}
	}
}
MOTION
Frames: 5
Frame Time: 0.033333
-0.226820 -0.949936 0.935025 -168.683689 -2.512213 104.244352 13.632981 1.538372 -31.207576 -7.133502 8.872163 16.837841 -1.256527 5.506871 -11.134432 0.000000 -0.000000 0.000000 -14.708033 -6.811647 -37.724011 -1.845539 -18.583001 41.528252 4.815125 -8.543439 -17.385472 0.000000 -0.000000 0.000000 1.272844 -1.525784 22.328087 1.028205 -1.564331 3.205124 -1.368884 -1.363498 -1.320415 -4.244148 4.769616 -12.746904 -0.261578 -8.654244 18.463214 -30.504464 -14.797080 5.746944 -49.384953 -17.797115 23.059145 -3.191457 -51.505849 16.368744 -7.906585 -30.598852 -35.536533 33.335364 13.836559 11.843173 41.931523 12.533157 7.430149 -12.539536 20.476537 -27.766885 -8.523625 12.828147 -33.105197 
-0.231142 -0.953321 0.933983 -169.814771 -2.065633 103.869805 13.337549 2.693056 -31.439942 -7.337487 7.394205 18.227108 0.362319 6.094722 -10.990380 0.000000 -0.000000 0.000000 -14.381703 -6.840874 -37.937388 -0.657208 -16.845847 40.896187 5.099290 -9.467000 -17.080846 0.000000 -0.000000 0.000000 1.419591 -1.930996 25.360765 0.729930 -1.602454 2.139847 -1.296006 -1.125506 -0.605082 -4.367690 3.606046 -13.176364 0.672805 -7.574455 18.557288 -30.540416 -17.335947 5.584913 -50.214503 -18.736197 25.922026 -10.694579 -49.724690 28.705985 4.195011 -22.064151 -20.103307 33.816662 16.076728 12.510443 41.800704 11.480195 6.973002 -11.884997 19.710529 -30.686633 -7.501063 11.753500 -35.248597 
-0.236205 -0.954950 0.932631 -170.547583 -1.487746 103.471048 13.386032 3.799640 -31.630249 -7.308073 7.520221 19.705557 1.021088 5.692999 -11.303756 0.000000 -0.000000 0.000000 -13.720664 -7.560977 -37.719309 -0.422564 -15.851526 40.474951 5.066262 -8.844252 -16.302019 0.000000 -0.000000 0.000000 1.774024 -2.086271 28.226860 0.670048 -1.865389 2.382152 -0.770197 -1.026362 -1.124867 -5.537664 2.295142 -13.161210 1.826518 -6.100390 17.522611 -30.921707 -19.956390 5.050964 -51.302977 -19.019805 27.797665 -15.376184 -49.568193 38.370035 8.459374 -15.355052 -7.334275 33.327123 18.167828 12.497041 42.329196 9.456945 5.811253 -11.051320 20.013557 -32.346138 -5.359379 11.178495 -38.005974 
-0.246223 -0.957710 0.930589 -171.931135 -0.825939 103.661157 13.373891 4.342722 -32.844748 -7.186260 7.479291 21.989415 1.496126 6.442338 -12.155251 0.000000 -0.000000 0.000000 -13.471269 -7.646780 -38.408706 -0.439620 -15.174110 40.229713 5.594076 -8.061798 -15.507480 0.000000 -0.000000 0.000000 1.825631 -2.150357 31.467985 0.718047 -1.963434 2.429350 -0.328646 -0.887127 -1.680709 -6.748370 1.914924 -13.963471 2.619151 -5.229095 17.163041 -31.023187 -22.294727 4.819652 -52.863350 -20.318296 29.937333 -19.637195 -49.784932 44.808092 10.142471 -15.941235 -5.060675 33.190748 19.718153 13.076172 42.352755 8.194789 5.136909 -8.732805 21.349849 -33.375803 -6.010445 10.686722 -41.839893 
-0.249954 -0.958131 0.930041 -172.378656 -0.675170 103.586055 13.325931 4.405989 -33.028075 -7.073963 7.741079 22.750645 1.549804 6.518668 -12.622199 0.000000 -0.000000 0.000000 -13.501290 -7.610291 -38.420852 -0.502336 -14.930939 40.112206 5.814344 -7.788947 -15.192447 0.000000 -0.000000 0.000000 1.584457 -1.942484 32.375849 0.815998 -2.004076 2.923652 -0.008021 -0.983138 -2.182144 -6.971245 1.939670 -14.165501 2.885789 -5.117645 16.955565 -31.026764 -23.137326 4.942684 -53.451141 -20.733064 30.782449 -20.425061 -49.956046 45.996380 11.068406 -16.019200 -4.558707 33.202204 20.111739 13.499196 42.252142 7.948874 5.407816 -8.031118 22.208149 -33.415852 -6.297634 10.567795 -43.132960 
